<svg width="152" height="70" viewBox="0 0 152 70" fill="none" xmlns="http://www.w3.org/2000/svg">
<path d="M30.7945 21.4739C31.0074 11.1717 25.038 2.19454 21.9291 0.0369706C21.9149 0.0230956 21.6381 -0.122591 21.6594 0.279785C21.6594 0.286723 21.6523 0.286721 21.6523 0.293658C21.3329 19.7534 11.0976 24.9982 5.53986 32.13C-6.81062 47.9891 3.49564 66.0822 16.8469 69.5093C17.0741 69.5648 17.6916 69.7452 18.8628 69.9811C19.4732 70.106 19.6506 69.5995 19.2035 68.8433C17.6064 66.1308 14.7672 61.552 14.2065 55.669C12.9289 42.009 30.546 33.462 30.7945 21.4739Z" fill="white"/>
<path d="M37.5236 28.0707C37.4171 27.9944 37.2681 28.0013 37.2539 28.1331C36.97 30.6098 34.3508 35.7436 30.9012 40.5444C19.2889 56.7296 25.1376 64.0695 29.6803 69.1616C30.5179 70.1051 30.9367 69.897 31.3767 69.2241C31.7884 68.5858 32.413 67.7741 35.0961 66.5323C35.5149 66.3381 45.6508 61.0794 46.751 49.1053C47.8086 37.5127 40.2067 30.1936 37.5236 28.0707Z" fill="white"/>
<path d="M79.1786 24.9343H82.0609C83.7947 24.9343 85.1997 26.2811 85.1975 27.9404C85.1909 31.3273 85.1777 35.1631 85.2534 38.1388C85.3191 40.6698 86.1301 48.4043 90.688 54.1082C94.0229 58.224 98.5787 60.0564 101.287 60.8253C102.623 61.205 103.543 62.3735 103.551 63.7076C103.557 64.7387 103.577 65.8023 103.58 66.6529C103.58 66.7777 103.469 66.8763 103.338 66.8627C95.8378 66.0844 86.2802 60.8347 82.1607 50.9363C81.9217 51.5353 79.5787 57.2538 73.9314 61.5868C68.6643 65.6282 62.4636 66.6624 61.1321 66.8365C61.0005 66.8533 60.8844 66.7568 60.8844 66.6298C60.8833 65.8159 60.8767 64.7439 60.8745 63.672C60.8723 62.3304 61.8039 61.1578 63.1497 60.7844C67.5344 59.5677 71.2463 57.1279 74.0366 53.5439C78.4564 48.3582 79.217 38.615 79.1863 34.9271C79.1611 31.878 79.1808 28.8278 79.1808 25.7797V24.9343H79.1786Z" fill="white"/>
<path d="M64.4595 45.7027C64.2962 43.9207 63.037 30.1655 62.8573 28.1821C62.8463 28.0604 62.9471 27.9555 63.0754 27.9555H66.1034C67.7286 27.9555 69.0843 29.1449 69.2257 30.6942C69.6421 35.2736 70.4476 44.1357 70.5835 45.6681C70.5945 45.7898 70.4937 45.8936 70.3665 45.8936H64.6776C64.5647 45.8936 64.4705 45.8108 64.4606 45.7038L64.4595 45.7027Z" fill="white"/>
<path d="M101.369 28.1843L99.7645 45.7029C99.7547 45.8109 99.6593 45.8948 99.5464 45.8948H93.9243C93.7961 45.8948 93.6953 45.7889 93.7063 45.6672L95.0751 30.6975C95.2164 29.1472 96.5732 27.9578 98.1996 27.9578H101.152C101.28 27.9578 101.381 28.0637 101.37 28.1854L101.369 28.1843Z" fill="white"/>
<path d="M151.293 29.8311L151.144 26.8936C151.083 25.6942 150.065 24.7689 148.873 24.8276L111.951 26.6537V31.7601L128.916 30.9327V37.3902H113.322V37.4881H113.23V62.1728H113.322V62.2266H118.597V42.8491H128.916V66.8581H134.083V42.8491H144.954V57.3602H139.495V62.0357H145.844C148.315 62.0357 150.315 60.0284 150.315 57.5511V41.8748C150.315 39.3975 148.315 37.3902 145.844 37.3902H134.083V30.6781L151.298 29.8262L151.293 29.8311Z" fill="white"/>
</svg>
